<svg width="88" height="126" viewBox="0 0 88 126" fill="none" xmlns="http://www.w3.org/2000/svg">
<g id="Group 56">
<g id="Group 43">
<path id="Vector" d="M46.8369 79.6182L5.09343 79.2199C5.09343 79.2199 4.70624 81.3612 5.50829 83.5225C6.2458 85.5144 9.22352 88.3828 9.22352 88.3828L12.7175 96.6992L15.5938 116.091L16.147 121.698C16.147 121.698 18.1936 125.831 29.7634 125.831C41.3331 125.831 43.3521 121.549 43.3521 121.549L43.7485 117.943L46.9659 97.9143L53.4008 85.9128C53.4008 85.9128 54.8113 84.8471 55.6317 82.5763C56.2033 80.9927 55.8991 78.7617 55.8991 79.0207C55.8991 79.2796 46.8369 79.6182 46.8369 79.6182Z" fill="#E27F13"/>
<path id="Vector_2" d="M30.5009 100.633C39.8766 100.693 44.4031 100.055 47.1596 97.9636C49.2338 96.3899 50.2479 94.6071 51.6584 92.0674C53.6128 88.5516 53.5299 85.8525 53.5299 85.8525C53.5299 85.8525 45.7122 90.2049 30.252 89.9858C15.0776 89.7767 6.93726 85.8725 6.93726 85.8725C6.93726 85.8725 7.67477 89.7368 8.90089 92.2467C10.3206 95.135 12.9111 96.9676 12.9111 96.9676C12.9111 96.9676 17.8248 100.553 30.5009 100.633ZM14.5245 101.479C15.4556 101.848 16.4236 102.196 16.4236 102.196L17.8064 119.994C17.8064 119.994 15.3265 119.088 15.0407 118.132C14.8748 117.584 14.1004 111.678 13.5472 106.878C13.2522 104.308 12.9849 102.575 12.9111 101.659C12.8282 100.663 13.6487 101.131 14.5245 101.479ZM24.4901 103.989C21.3557 103.561 18.8574 102.993 18.8574 102.993C18.9035 103.362 20.0374 120.562 20.0374 120.562C20.0374 120.562 21.2543 121.399 24.6745 121.857L24.4901 103.989ZM32.6858 104.278C30.3534 104.417 27.7537 104.238 26.8871 104.208L26.8133 122.066C27.7168 122.126 28.7124 122.156 29.8279 122.146C30.7867 122.136 31.6902 122.076 32.566 121.996L32.6858 104.278ZM43.4167 103.123C42.9742 107.186 42.043 115.991 41.6743 119.626C43.4167 118.939 44.1081 118.58 44.3386 117.634C44.569 116.688 46.3852 103.163 46.4313 102.426C46.4681 101.957 46.2653 101.878 45.1406 102.386C44.4308 102.724 44.0896 102.864 43.4167 103.123ZM41.2133 103.491C39.6092 103.78 37.4981 104.069 35.009 104.288L34.7048 121.708C36.7145 121.349 38.4292 120.821 39.8305 120.263C40.2085 116.06 40.9644 106.808 41.2133 103.491Z" fill="#F5B03E"/>
</g>
<g id="Group 42">
<path id="Vector_3" d="M87.9998 6.6V0C48.3998 0 16.4265 31.9733 16.4265 71.28H23.0265C23.0265 35.64 52.0665 6.6 87.9998 6.6Z" fill="#FF6666"/>
<path id="Vector_4" d="M23.0266 71.2801H29.6266C29.6266 39.3068 55.7333 13.2001 87.9999 13.2001V6.6001C52.0666 6.6001 23.0266 35.6401 23.0266 71.2801Z" fill="#FFFB80"/>
<path id="Vector_5" d="M87.9998 19.8002V13.2002C55.7331 13.2002 29.6265 39.1602 29.6265 71.2802H36.2265C36.2265 42.8269 59.3998 19.8002 87.9998 19.8002Z" fill="#A3E66F"/>
<path id="Vector_6" d="M36.2266 71.2798H42.8266C42.9732 46.4931 63.0666 26.3998 87.9999 26.3998V19.7998C59.3999 19.7998 36.2266 42.8265 36.2266 71.2798Z" fill="#66C2FF"/>
<path id="Vector_7" d="M88 32.9999V26.3999C63.0667 26.3999 42.9734 46.4932 42.9734 71.2799H49.5734C49.5734 50.1599 66.7334 32.9999 88 32.9999Z" fill="#9180FF"/>
<path id="Vector_8" d="M11.8801 86.0932C10.8534 86.0932 9.82674 85.9466 8.80007 85.6532C4.6934 84.3332 1.90674 80.5199 1.90674 76.2666C1.90674 73.4799 3.08007 70.6932 5.28007 68.7866L7.04007 67.4666L7.62674 65.1199C9.24007 59.3999 14.6667 55.4399 20.5334 55.4399C21.1201 55.4399 21.7067 55.4399 22.4401 55.5866C23.0267 55.7332 23.4667 55.7332 24.0534 55.8799L24.3467 55.4399C26.6934 51.1866 31.3867 48.3999 36.2267 48.3999C43.7067 48.3999 49.8667 54.5599 49.8667 62.0399V63.3599C50.4534 63.6532 51.0401 63.7999 51.6267 64.0932C55.2934 66.1466 57.4934 70.1066 57.4934 74.2132C57.4934 79.6399 53.6801 84.3332 48.4001 85.6532C47.5201 85.7999 46.6401 85.9466 45.7601 85.9466L11.8801 86.0932Z" fill="white"/>
<path id="Vector_9" d="M36.52 50.4532C42.9734 50.4532 48.2534 55.5865 48.2534 62.0398V62.9198C45.6134 63.0665 43.12 64.2398 41.2134 65.8532C42.68 64.9732 44.2934 64.5332 46.0534 64.5332C46.64 64.5332 47.3734 64.5332 47.96 64.6798C48.9867 64.8265 50.0134 65.2665 50.8934 65.8532C53.8267 67.4665 55.7333 70.6932 55.7333 74.2132C55.7333 78.7598 52.5067 82.7198 48.1067 83.7465C47.3733 83.8932 46.64 84.0398 45.9067 84.0398H11.88C11 84.0398 10.12 83.8932 9.38669 83.5998C6.16003 82.5732 3.96003 79.6398 3.96003 76.1198C3.96003 73.7732 4.9867 71.5732 6.7467 70.1065C7.48003 69.3732 8.36003 68.9332 9.38669 68.6398C10.2667 68.3465 11.1467 68.1998 12.0267 68.1998C14.52 68.1998 16.8667 69.3732 18.3334 71.2798C16.5734 68.1998 13.4934 65.9998 9.8267 65.7065C11.1467 61.0132 15.5467 57.4932 20.8267 57.4932C21.4134 57.4932 22 57.4932 22.44 57.6398C23.4667 57.7865 24.4934 58.0798 25.52 58.5198C29.04 60.1332 31.68 63.3598 32.2667 67.3198C32.2667 62.7732 29.92 58.9598 26.4 56.6132C28.3067 52.7998 32.12 50.4532 36.52 50.4532ZM36.52 46.4932C31.0934 46.4932 26.1067 49.2798 23.32 53.6798H23.0267C22.1467 53.5332 21.56 53.5332 20.8267 53.5332C13.9334 53.5332 7.92003 58.0798 6.01336 64.6798L5.57336 66.2932C5.13336 66.5865 4.5467 67.0265 4.1067 67.3198C2.81783 68.395 1.78167 69.7408 1.07189 71.2618C0.36211 72.7828 -0.0038498 74.4414 3.05379e-05 76.1198C3.05379e-05 81.2532 3.2267 85.7998 8.21336 87.4132C9.38669 87.8532 10.7067 87.9998 12.0267 87.9998H46.0534C47.08 87.9998 48.1067 87.8532 49.1334 87.7065C55.44 86.2398 59.84 80.8132 59.84 74.3598C59.84 69.5198 57.2 64.9732 52.9467 62.4798C52.8 62.3332 52.5067 62.1865 52.36 62.1865V62.0398C52.2134 53.3865 45.1734 46.4932 36.52 46.4932Z" fill="#75D6FF"/>
</g>
</g>
</svg>
